<?xml version="1.0" encoding="UTF-8"?>
<svg viewBox="0 0 128 32" xmlns="http://www.w3.org/2000/svg">
<rect width="128" height="32" fill="#fff"/>
<path d="m28.25 4 0.7071 0.70711 1.7071-1.7071h-2.4142v1zm0 12 0.7071 0.7071 1.7071-1.7071h-2.4142v1zm-24 12h-1v1h1v-1zm12 0v1h0.4142l0.2929-0.2929-0.7071-0.7071zm-6.625-24v-1h-0.41421l-0.2929 0.29289 0.70711 0.70711zm-5.375 5.375-0.70711-0.70711-0.29289 0.2929v0.41421h1zm23.293-6.0821-12 12 1.4142 1.4142 12-12-1.4142-1.4142zm-11.293 13.707h12v-2h-12v2zm-0.7071-1.7071-12 12 1.4142 1.4142 12-12-1.4142-1.4142zm12 0-12 12 1.4142 1.4142 12-12-1.4142-1.4142zm-23.293 13.707h12v-2h-12v2zm5.375-24h18.625v-2h-18.625v2zm-4.375 23v-18.625h-2v18.625h2zm3.6679-24.707-5.375 5.375 1.4142 1.4142 5.375-5.375-1.4142-1.4142z"/>
<path d="m38.99 22.78c0.8533 0 1.6133-0.12 2.28-0.36 0.68-0.24 1.2533-0.56 1.72-0.96 0.4667-0.4133 0.82-0.8933 1.06-1.44 0.2533-0.5467 0.38-1.12 0.38-1.72 0-1.08-0.2667-1.9267-0.8-2.54s-1.26-1.1067-2.18-1.48l-1.94-0.82c-0.32-0.12-0.62-0.24-0.9-0.36-0.28-0.1333-0.5267-0.2733-0.74-0.42-0.2-0.1467-0.3667-0.3133-0.5-0.5-0.12-0.1867-0.18-0.4067-0.18-0.66 0-0.4933 0.1933-0.8733 0.58-1.14 0.3867-0.28 0.9067-0.42 1.56-0.42 0.6133 0 1.1733 0.1067 1.68 0.32s0.9933 0.5133 1.46 0.9l1.5-1.86c-0.6-0.61333-1.3067-1.08-2.12-1.4-0.8-0.33333-1.64-0.5-2.52-0.5-0.7467 0-1.4333 0.11333-2.06 0.34-0.6267 0.21333-1.1667 0.51333-1.62 0.9-0.4533 0.37333-0.8067 0.82667-1.06 1.36-0.2533 0.52-0.38 1.08-0.38 1.68 0 0.72 0.1467 1.34 0.44 1.86 0.2933 0.5067 0.66 0.9333 1.1 1.28 0.4533 0.3467 0.94 0.6267 1.46 0.84l1.98 0.84c0.3333 0.1467 0.6333 0.28 0.9 0.4 0.28 0.12 0.5133 0.2533 0.7 0.4 0.2 0.1467 0.3533 0.3133 0.46 0.5s0.16 0.42 0.16 0.7c0 0.52-0.2 0.9333-0.6 1.24s-0.9867 0.46-1.76 0.46c-0.6533 0-1.3133-0.1467-1.98-0.44-0.6533-0.3067-1.2467-0.7067-1.78-1.2l-1.7 2.04c0.72 0.6933 1.5467 1.2267 2.48 1.6 0.9467 0.3733 1.92 0.56 2.92 0.56zm5.9717-12.62h4.16v12.34h2.96v-12.34h4.2v-2.46h-11.32v2.46zm14.562 8.54h4.8l1.04 3.8h3.1l-4.76-14.8h-3.48l-4.74 14.8h3l1.04-3.8zm3.72-3.92 0.44 1.62h-3.52l0.44-1.62c0.2266-0.7733 0.4466-1.5667 0.66-2.38 0.2133-0.8267 0.4133-1.6467 0.6-2.46h0.08c0.2266 0.8 0.44 1.6133 0.64 2.44 0.2133 0.8267 0.4333 1.6267 0.66 2.4zm3.7895-4.62h4.16v12.34h2.96v-12.34h4.2v-2.46h-11.32v2.46zm16.28-2.46h-2.96v14.8h2.96v-14.8zm9.2816 15.08c1.9333 0 3.5066-0.7267 4.72-2.18l-1.56-1.84c-0.4 0.4267-0.8534 0.78-1.36 1.06-0.4934 0.2667-1.06 0.4-1.7 0.4-0.5867 0-1.12-0.1133-1.6-0.34-0.4667-0.24-0.8734-0.58-1.22-1.02-0.3334-0.4533-0.5934-1-0.78-1.64-0.1734-0.64-0.26-1.36-0.26-2.16s0.1-1.5133 0.3-2.14 0.4733-1.16 0.82-1.6c0.3466-0.44 0.76-0.7733 1.24-1 0.48-0.24 1-0.36 1.56-0.36s1.06 0.12 1.5 0.36c0.44 0.2267 0.8466 0.52 1.22 0.88l1.56-1.88c-0.48-0.50667-1.0867-0.94667-1.82-1.32-0.72-0.38667-1.56-0.58-2.52-0.58-0.9334 0-1.82 0.17333-2.66 0.52-0.8267 0.34667-1.5534 0.85333-2.18 1.52-0.6267 0.6667-1.1267 1.48-1.5 2.44-0.36 0.9467-0.54 2.0333-0.54 3.26 0 1.24 0.1733 2.3333 0.52 3.28 0.36 0.9467 0.8466 1.74 1.46 2.38 0.6133 0.64 1.3333 1.1267 2.16 1.46 0.8266 0.3333 1.7066 0.5 2.64 0.5zm9.6646-15.08h-2.9601v14.8h2.9601v-4.16l1.94-2.48 3.82 6.64h3.26l-5.32-8.98 4.52-5.82h-3.26l-4.9 6.42h-0.06v-6.42zm14.4 15.08c0.853 0 1.613-0.12 2.28-0.36 0.68-0.24 1.253-0.56 1.72-0.96 0.466-0.4133 0.82-0.8933 1.06-1.44 0.253-0.5467 0.38-1.12 0.38-1.72 0-1.08-0.267-1.9267-0.8-2.54-0.534-0.6133-1.26-1.1067-2.18-1.48l-1.94-0.82c-0.32-0.12-0.62-0.24-0.9-0.36-0.28-0.1333-0.527-0.2733-0.74-0.42-0.2-0.1467-0.367-0.3133-0.5-0.5-0.12-0.1867-0.18-0.4067-0.18-0.66 0-0.4933 0.193-0.8733 0.58-1.14 0.386-0.28 0.906-0.42 1.56-0.42 0.613 0 1.173 0.1067 1.68 0.32 0.506 0.2133 0.993 0.5133 1.46 0.9l1.5-1.86c-0.6-0.61333-1.307-1.08-2.12-1.4-0.8-0.33333-1.64-0.5-2.52-0.5-0.747 0-1.434 0.11333-2.06 0.34-0.627 0.21333-1.167 0.51333-1.62 0.9-0.454 0.37333-0.807 0.82667-1.06 1.36-0.254 0.52-0.38 1.08-0.38 1.68 0 0.72 0.146 1.34 0.44 1.86 0.293 0.5067 0.66 0.9333 1.1 1.28 0.453 0.3467 0.94 0.6267 1.46 0.84l1.98 0.84c0.333 0.1467 0.633 0.28 0.9 0.4 0.28 0.12 0.513 0.2533 0.7 0.4 0.2 0.1467 0.353 0.3133 0.46 0.5 0.106 0.1867 0.16 0.42 0.16 0.7 0 0.52-0.2 0.9333-0.6 1.24s-0.987 0.46-1.76 0.46c-0.654 0-1.314-0.1467-1.98-0.44-0.654-0.3067-1.247-0.7067-1.78-1.2l-1.7 2.04c0.72 0.6933 1.546 1.2267 2.48 1.6 0.946 0.3733 1.92 0.56 2.92 0.56z"/>
</svg>
